<svg width="24" height="24" viewBox="0 0 24 24" fill="none" xmlns="http://www.w3.org/2000/svg">
<path fill-rule="evenodd" clip-rule="evenodd" d="M12.3175 2.91358C11.4867 3.21051 10.8557 3.7039 10.4076 4.44621C9.97611 5.17876 9.81067 5.99353 9.81067 6.91378V9.97214H6.65079V12.4982H9.81067V21.3704H12.6098L12.61 12.4727H16.243L16.2439 9.92115H12.61V9.10634C12.61 8.86003 12.6072 8.60947 12.6043 8.3564C12.5985 7.84217 12.5925 7.31753 12.6101 6.79695C12.6126 6.31483 12.741 5.81011 13.1361 5.43453C13.5249 5.06498 14.0322 4.95421 14.499 4.95174C15.1207 4.92973 15.7406 4.92669 16.3492 4.92627V2.62963H14.0674C13.4423 2.62963 12.8787 2.71834 12.3175 2.91358ZM11.765 1.37792C12.5195 1.11494 13.2716 1 14.0674 1H16.648C16.9241 1 17.3172 1.05374 17.6275 1.35419C17.9415 1.6582 18 2.04848 18 2.32471V5.23112C18 5.50735 17.9415 5.89763 17.6275 6.20164C17.3172 6.50209 16.9241 6.55583 16.648 6.55583C15.9345 6.55583 15.2385 6.55592 14.545 6.58079L14.53 6.58133H14.515C14.3796 6.58133 14.3126 6.59941 14.2856 6.60981C14.2759 6.63573 14.2608 6.6955 14.2608 6.8118V6.82564L14.2603 6.83948C14.2435 7.32916 14.2489 7.79301 14.2546 8.28748C14.2546 8.28882 14.2547 8.29017 14.2547 8.29152H16.49C16.766 8.29152 17.1874 8.33436 17.5156 8.65208C17.848 8.97392 17.8947 9.39236 17.8947 9.66722V12.7521C17.8947 12.991 17.869 13.4344 17.5142 13.7651C17.175 14.0814 16.7353 14.1023 16.49 14.1023H14.2608V21.5988C14.2608 21.8447 14.2367 22.2871 13.8985 22.6262C13.5583 22.9673 13.1058 23 12.8298 23H9.53825C9.26268 23 8.85529 22.9521 8.53569 22.6426C8.2121 22.3293 8.15987 21.9248 8.15987 21.6498V14.1278H6.37837C6.1055 14.1278 5.67991 14.0863 5.35493 13.7596C5.0325 13.4354 5 13.0205 5 12.7776V9.69272C5 9.42082 5.04544 8.99815 5.38703 8.67967C5.71689 8.37213 6.13404 8.34251 6.37837 8.34251H8.15987V6.91378C8.15987 5.79576 8.3626 4.67395 8.98306 3.62267L8.98681 3.61633C9.64395 2.52562 10.5914 1.79653 11.7593 1.37993L11.765 1.37792Z" fill="#344054"/>
</svg>
