<svg width="23" height="22" viewBox="0 0 23 22" fill="none" xmlns="http://www.w3.org/2000/svg">
<path fill-rule="evenodd" clip-rule="evenodd" d="M14.5383 3.50166C15.3694 2.91991 15.9364 2.52427 16.3793 2.27095C16.8328 2.01161 16.9988 1.99817 17.0437 2.00014C17.339 2.01306 17.6134 2.15595 17.7933 2.39045C17.8207 2.42613 17.9049 2.56978 17.9525 3.09001C17.9989 3.59817 18 4.28951 18 5.30396L18 7.15798L18 13.158L18 15.0117C18 16.0262 17.9989 16.7175 17.9525 17.2257C17.9049 17.7459 17.8207 17.8896 17.7933 17.9252C17.6134 18.1597 17.339 18.3026 17.0437 18.3156C16.9988 18.3175 16.8328 18.3041 16.3793 18.0447C15.9364 17.7914 15.3694 17.3958 14.5383 16.814L9.99997 13.6372L9.99997 6.67851L14.5383 3.50166ZM19.9999 14.0319L19.9999 15.0117L19.9999 15.0617L19.9999 15.0617C20 16.0138 20 16.7975 19.9441 17.4079C19.8884 18.0169 19.766 18.6398 19.3801 19.1427C18.8403 19.8462 18.017 20.2749 17.1311 20.3136C16.4978 20.3414 15.9173 20.0845 15.3864 19.7809C14.8544 19.4766 14.2123 19.0271 13.4323 18.4811L13.3914 18.4525L8.99998 15.3785L8.99998 18.6582C8.99998 20.0389 7.88069 21.1582 6.49998 21.1582C5.11927 21.1582 3.99999 20.0389 3.99999 18.6582L3.99999 15.0581C1.71775 14.5948 -1.75201e-06 12.577 -1.7761e-06 10.1581C-1.77011e-06 7.39668 2.23857 5.15811 4.99998 5.15811L8.6844 5.15811L13.3914 1.8632L13.4323 1.83457L13.4323 1.83456C14.2123 1.28856 14.8544 0.839099 15.3864 0.53481C15.9173 0.231236 16.4978 -0.025657 17.1311 0.00205505C18.017 0.0408196 18.8403 0.469496 19.3801 1.173C19.766 1.67592 19.8884 2.29883 19.9441 2.9078C20 3.5182 20 4.30195 19.9999 5.25404L19.9999 5.30396L19.9999 6.284C21.7252 6.72804 22.9999 8.29414 22.9999 10.158C22.9999 12.0218 21.7252 13.5879 19.9999 14.0319ZM19.9999 11.8904C20.5977 11.5446 20.9999 10.8983 20.9999 10.158C20.9999 9.41769 20.5977 8.77135 19.9999 8.42554L19.9999 11.8904ZM7.99998 7.1581L4.99998 7.1581C3.34314 7.1581 1.99999 8.50124 1.99999 10.1581C1.99999 11.8149 3.34313 13.1581 4.99998 13.1581L7.99998 13.1581L7.99998 7.1581ZM5.99998 15.1582L5.99998 18.6582C5.99998 18.9343 6.22384 19.1582 6.49998 19.1582C6.77613 19.1582 6.99998 18.9343 6.99998 18.6582L6.99998 15.1582L5.99998 15.1582Z" fill="#344054"/>
</svg>
