<svg width="20" height="20" viewBox="0 0 20 20" fill="none" xmlns="http://www.w3.org/2000/svg">
<path d="M16.665 10C16.665 13.681 13.6809 16.665 9.99996 16.665M16.665 10C16.665 6.31904 13.6809 3.33502 9.99996 3.33502M16.665 10H3.33496M9.99996 16.665C6.31898 16.665 3.33496 13.681 3.33496 10M9.99996 16.665C11.4953 16.665 12.7075 13.681 12.7075 10C12.7075 6.31904 11.4953 3.33502 9.99996 3.33502M9.99996 16.665C8.50465 16.665 7.29246 13.681 7.29246 10C7.29246 6.31904 8.50465 3.33502 9.99996 3.33502M3.33496 10C3.33496 6.31904 6.31898 3.33502 9.99996 3.33502" stroke="#344054" stroke-width="1.5" stroke-miterlimit="10" stroke-linecap="round" stroke-linejoin="round"/>
</svg>
