<svg width="20" height="20" viewBox="0 0 20 20" fill="none" xmlns="http://www.w3.org/2000/svg">
<path d="M11.7788 3.03226C14.6328 3.03226 16.946 5.34571 16.946 8.20002M11.7788 5.68778C13.1657 5.68778 14.2908 6.81225 14.2908 8.20002M8.19271 11.764C8.86777 12.4113 9.6591 12.938 10.5337 13.3115L10.923 13.4773L12.1193 12.2621C12.4163 11.9605 12.8461 11.83 13.2609 11.917L16.1592 12.5239C16.6497 12.6281 17 13.061 17 13.5621V15.649C17 16.3954 16.3954 17 15.6491 17H15.0078C12.0571 17 9.1453 16.0226 6.9431 14.0587C6.76159 13.8974 6.58532 13.7301 6.41355 13.5591L6.44131 13.5868C6.26954 13.415 6.10303 13.2388 5.94176 13.0572C3.97734 10.8555 3 7.94347 3 4.99239V4.35102C3 3.60462 3.60455 3 4.35087 3H6.43756C6.9386 3 7.37139 3.35032 7.47565 3.84092L8.0832 6.73948C8.16946 7.15357 8.0397 7.58415 7.73817 7.88121L6.52306 9.07769L6.68883 9.46702C7.06236 10.3409 7.54466 11.0888 8.19271 11.764Z" stroke="#344054" stroke-width="1.5" stroke-miterlimit="10" stroke-linecap="round" stroke-linejoin="round"/>
</svg>
